<svg width="22" height="22" viewBox="0 0 22 22" fill="none" xmlns="http://www.w3.org/2000/svg">
<path d="M20.7626 19.4096L14.3861 13.0331C15.3756 11.7538 15.9109 10.1897 15.9109 8.54466C15.9109 6.57546 15.1423 4.72904 13.7526 3.33685C12.3629 1.94466 10.5115 1.17859 8.54478 1.17859C6.57804 1.17859 4.7267 1.94712 3.33697 3.33685C1.94478 4.72658 1.17871 6.57546 1.17871 8.54466C1.17871 10.5114 1.94724 12.3627 3.33697 13.7525C4.7267 15.1447 6.57559 15.9107 8.54478 15.9107C10.1899 15.9107 11.7515 15.3755 13.0307 14.3884L19.4073 20.7625C19.426 20.7812 19.4482 20.7961 19.4726 20.8062C19.4971 20.8163 19.5232 20.8215 19.5497 20.8215C19.5761 20.8215 19.6023 20.8163 19.6268 20.8062C19.6512 20.7961 19.6734 20.7812 19.6921 20.7625L20.7626 19.6944C20.7813 19.6757 20.7962 19.6535 20.8063 19.6291C20.8164 19.6047 20.8217 19.5785 20.8217 19.552C20.8217 19.5256 20.8164 19.4994 20.8063 19.4749C20.7962 19.4505 20.7813 19.4283 20.7626 19.4096ZM12.4341 12.4339C11.393 13.4726 10.0131 14.0447 8.54478 14.0447C7.07648 14.0447 5.69657 13.4726 4.6555 12.4339C3.61688 11.3929 3.04478 10.013 3.04478 8.54466C3.04478 7.07636 3.61688 5.69399 4.6555 4.65537C5.69657 3.61676 7.07648 3.04466 8.54478 3.04466C10.0131 3.04466 11.3955 3.6143 12.4341 4.65537C13.4727 5.69645 14.0448 7.07636 14.0448 8.54466C14.0448 10.013 13.4727 11.3953 12.4341 12.4339Z" fill="#49407D"/>
</svg>
